<?xml version="1.0" encoding="UTF-8"?>
<svg width="40px" height="40px" viewBox="0 0 40 40" version="1.1" xmlns="http://www.w3.org/2000/svg" xmlns:xlink="http://www.w3.org/1999/xlink">
    <!-- Generator: Sketch 51.2 (57519) - http://www.bohemiancoding.com/sketch -->
    <title>icon_coffee</title>
    <desc>Created with Sketch.</desc>
    <defs></defs>
    <g id="icon_coffee" stroke="none" stroke-width="1" fill="none" fill-rule="evenodd">
        <g id="Group" transform="translate(12.000000, 8.000000)">
            <g transform="translate(2.646767, 4.907000)" fill="#FF9100" id="Shape">
                <polygon points="5.08724884 0.036 0 0 2.49844611 18.62 8.58558484 18.62 11.0814737 0"></polygon>
            </g>
            <g transform="translate(2.646767, 4.907000)" fill="#FFDD00" id="Shape">
                <polygon points="5.08724884 0.036 0 0 2.49844611 18.62 7.31377263 18.62 9.81136632 0"></polygon>
            </g>
            <g transform="translate(1.193389, 3.190000)" fill="#FFFFFF" id="Shape">
                <polygon points="0 1.717 13.1272842 1.717 13.1272842 0 0 0"></polygon>
            </g>
            <g transform="translate(0.852421, 2.790000)" fill="#000000" fill-rule="nonzero" id="Shape">
                <path d="M0.340968421,2.117 L0,2.117 L0,2.517 L0.340968421,2.517 L0.340968421,2.117 Z M13.4682526,2.117 L13.4682526,2.517 L13.8092211,2.517 L13.8092211,2.117 L13.4682526,2.117 Z M13.4682526,0.4 L13.8092211,0.4 L13.8092211,-1.11022302e-16 L13.4682526,-1.11022302e-16 L13.4682526,0.4 Z M0.340968421,0.4 L0.340968421,-1.11022302e-16 L5.55111512e-16,-1.11022302e-16 L5.55111512e-16,0.4 L0.340968421,0.4 Z M0.340968421,2.517 L13.4682526,2.517 L13.4682526,1.717 L0.340968421,1.717 L0.340968421,2.517 Z M13.8092211,2.117 L13.8092211,0.4 L13.1272842,0.4 L13.1272842,2.117 L13.8092211,2.117 Z M13.4682526,-2.22044605e-16 L0.340968421,-2.22044605e-16 L0.340968421,0.8 L13.4682526,0.8 L13.4682526,-2.22044605e-16 Z M2.22044605e-16,0.4 L2.22044605e-16,2.117 L0.681936842,2.117 L0.681936842,0.4 L2.22044605e-16,0.4 Z"></path>
            </g>
            <g transform="translate(2.691946, 0.400000)" fill="#FFFFFF" id="Shape">
                <polygon points="9.08510358 0 0.953859158 0 0 2.576 10.0389627 2.576"></polygon>
            </g>
            <g transform="translate(0.486732, 0.000000)" fill-rule="nonzero" id="Shape">
                <g transform="translate(1.686089, 0.000000)" fill="#050505">
                    <path d="M9.604228,0.4 L9.91706653,0.241 L9.83182442,0.001 L9.60849011,0.001 L9.604228,0.4 Z M1.47298358,0.4 L1.47298358,0 L1.24964926,0 L1.16440716,0.24 L1.47298358,0.4 Z M0.519124421,2.976 L0.207138316,2.816 L2.22044605e-16,3.375 L0.519124421,3.375 L0.519124421,2.976 Z M10.5555299,2.976 L10.5555299,3.376 L11.0746543,3.376 L10.8709257,2.816 L10.5555299,2.976 Z M9.604228,0 L6.46987579,0 L6.46987579,0.8 L9.604228,0.8 L9.604228,0 Z M6.46987579,0 L4.60733579,0 L4.60733579,0.8 L6.46987579,0.8 L6.46987579,0 Z M4.60733579,0 L1.47298358,0 L1.47298358,0.8 L4.60733579,0.8 L4.60733579,0 Z M1.16099747,0.241 L0.207138316,2.816 L0.831962947,3.135 L1.78582211,0.559 L1.16099747,0.241 Z M0.519124421,3.376 L4.61074547,3.376 L4.61074547,2.576 L0.519124421,2.576 L0.519124421,3.376 Z M4.61074547,3.376 L6.46987579,3.376 L6.46987579,2.576 L4.60733579,2.576 L4.61074547,3.376 Z M6.47328547,3.376 L10.5649065,3.376 L10.5649065,2.576 L6.47328547,2.576 L6.47328547,3.376 Z M10.8709257,2.816 L9.91706653,0.241 L9.29224189,0.56 L10.2461011,3.136 L10.8709257,2.816 Z"></path>
                </g>
                <g transform="translate(0.000000, 4.505000)" fill="#000000">
                    <path d="M7.24728379,0.439 L7.24728379,0.839 L7.24728379,0.439 Z M1.25135411,0.403 L1.25135411,0.003 L0.850716211,0.003 L0.912942947,0.467 L1.25135411,0.403 Z M3.74980021,19.023 L3.41650358,19.081 L3.46168189,19.419 L3.75320989,19.419 L3.74980021,19.023 Z M10.7456198,19.023 L10.7456198,19.423 L11.0371478,19.423 L11.0823261,19.085 L10.7456198,19.023 Z M13.2432135,0.403 L13.5799198,0.465 L13.6455562,0 L13.2449183,0 L13.2432135,0.403 Z M7.25239832,0.039 L1.25305895,0.003 L1.25305895,0.803 L7.24557895,0.838 L7.25239832,0.039 Z M0.914647789,0.465 L3.41650358,19.081 L4.08991621,18.957 L1.587208,0.34 L0.914647789,0.465 Z M3.74980021,19.422 L4.29449726,19.422 L4.29449726,18.622 L3.74980021,18.622 L3.74980021,19.422 Z M4.29449726,19.422 L10.2000703,19.422 L10.2000703,18.622 L4.29449726,18.622 L4.29449726,19.422 Z M10.2000703,19.422 L10.7473246,19.422 L10.7473246,18.622 L10.2026276,18.622 L10.2000703,19.422 Z M11.0814737,19.084 L13.5799198,0.465 L12.9065072,0.341 L10.4063562,18.96 L11.0814737,19.084 Z M13.2415086,0.003 L7.24557895,0.039 L7.24557895,0.839 L13.2449183,0.802 L13.2415086,0.003 Z"></path>
                </g>
            </g>
            <g transform="translate(1.511343, 10.165000)" fill="#FFFFFF" id="Shape">
                <polygon points="12.4010215 0 0 0 1.11922884 7.4 6.20051074 7.34 11.2817926 7.405"></polygon>
            </g>
            <g transform="translate(1.104738, 9.766000)" fill="#000000" fill-rule="nonzero" id="Shape">
                <path d="M12.8084787,0.4 L13.1443326,0.47 L13.2150836,0.001 L12.8084787,0.001 L12.8084787,0.4 Z M0.407457263,0.4 L0.407457263,0 L0,0 L0.0707509474,0.469 L0.407457263,0.4 Z M1.52668611,7.8 L1.19083221,7.876 L1.24112505,8.209 L1.53009579,8.209 L1.52668611,7.8 Z M6.607968,7.735 L6.607968,7.335 L6.60370589,7.335 L6.607968,7.735 Z M11.6892499,7.8 L11.6892499,8.2 L11.9782206,8.2 L12.0285135,7.867 L11.6892499,7.8 Z M12.8084787,0 L6.82277811,0 L6.82277811,0.8 L12.8084787,0.8 L12.8084787,0 Z M6.82363053,0 L6.39230547,0 L6.39230547,0.8 L6.82277811,0.8 L6.82363053,0 Z M6.39315789,0 L0.406604842,0 L0.406604842,0.8 L6.39230547,0.8 L6.39315789,0 Z M0.0716033684,0.47 L1.19083221,7.876 L1.86168758,7.736 L0.742458737,0.33 L0.0716033684,0.47 Z M1.53009579,8.204 L6.61137768,8.14 L6.60370589,7.34 L1.522424,7.405 L1.53009579,8.204 Z M6.60370589,8.139 L11.6849878,8.204 L11.6926596,7.404 L6.61137768,7.341 L6.60370589,8.139 Z M12.0233989,7.876 L13.1426278,0.476 L12.4717724,0.336 L11.3525436,7.736 L12.0233989,7.876 Z"></path>
            </g>
        </g>
    </g>
</svg>