<?xml version="1.0" encoding="UTF-8"?>
<svg width="40px" height="40px" viewBox="0 0 40 40" version="1.1" xmlns="http://www.w3.org/2000/svg" xmlns:xlink="http://www.w3.org/1999/xlink">
    <!-- Generator: Sketch 51.2 (57519) - http://www.bohemiancoding.com/sketch -->
    <title>overrides</title>
    <desc>Created with Sketch.</desc>
    <defs></defs>
    <g id="Landing" stroke="none" stroke-width="1" fill="none" fill-rule="evenodd">
        <g id="Fluid" transform="translate(-720.000000, -509.000000)">
            <g id="overrides" transform="translate(720.000000, 509.000000)">
                <rect id="Rectangle" fill="#FFF6C4" x="0" y="0" width="40" height="40" rx="11.6"></rect>
                <path d="M19.8141719,13.109375 L18.1266719,14.796875 L18.1266719,13.3984375 L15.1891719,13.3984375 C14.6813569,13.3984375 14.2490695,13.2194028 13.8922969,12.8613281 C13.5355243,12.5032534 13.3571406,12.0716171 13.3571406,11.5664062 C13.3571406,11.0611954 13.5355243,10.6295591 13.8922969,10.2714844 C14.2490695,9.91340967 14.6813569,9.734375 15.1891719,9.734375 L15.2829219,9.734375 L15.2829219,10.3125 L15.1891719,10.3125 C14.8402118,10.3125 14.5439908,10.4348946 14.3005,10.6796875 C14.0570092,10.9244804 13.9352656,11.2200504 13.9352656,11.5664062 C13.9352656,11.9127621 14.0570092,12.2083321 14.3005,12.453125 C14.5439908,12.6979179 14.8402118,12.8203125 15.1891719,12.8203125 L18.1266719,12.8203125 L18.1266719,11.421875 L19.8141719,13.109375 Z M25.6871719,10.552 L27.8471719,15.016 C27.937839,15.1973342 27.9831719,15.3333329 27.9831719,15.424 C27.9831719,15.616001 27.8285068,15.7893326 27.5191719,15.944 C27.3378376,16.0346671 27.1951724,16.08 27.0911719,16.08 C26.9871714,16.08 26.9018389,16.0560002 26.8351719,16.008 C26.7685049,15.9599998 26.7205054,15.9093336 26.6911719,15.856 C26.6618384,15.8026664 26.6205055,15.7226672 26.5671719,15.616 L26.1511719,14.752 L23.9351719,14.752 L23.5191719,15.616 C23.4658383,15.7226672 23.4245054,15.7999998 23.3951719,15.848 C23.3658384,15.8960002 23.3178389,15.9453331 23.2511719,15.996 C23.1845049,16.0466669 23.0991724,16.072 22.9951719,16.072 C22.8911714,16.072 22.7485061,16.0266671 22.5671719,15.936 C22.257837,15.7866659 22.1031719,15.616001 22.1031719,15.424 C22.1031719,15.3333329 22.1485048,15.1973342 22.2391719,15.016 L24.3991719,10.544 C24.4578388,10.4213327 24.5471713,10.322667 24.6671719,10.248 C24.7871725,10.173333 24.9138379,10.136 25.0471719,10.136 C25.3351733,10.136 25.5485045,10.2746653 25.6871719,10.552 Z M25.0391719,12.472 L24.5111719,13.568 L25.5751719,13.568 L25.0391719,12.472 Z M20.2901719,27.109375 L18.6026719,28.796875 L18.6026719,27.3984375 L15.6651719,27.3984375 C15.1573569,27.3984375 14.7250695,27.2194028 14.3682969,26.8613281 C14.0115243,26.5032534 13.8331406,26.0716171 13.8331406,25.5664062 C13.8331406,25.0611954 14.0115243,24.6295591 14.3682969,24.2714844 C14.7250695,23.9134097 15.1573569,23.734375 15.6651719,23.734375 L15.7589219,23.734375 L15.7589219,24.3125 L15.6651719,24.3125 C15.3162118,24.3125 15.0199908,24.4348946 14.7765,24.6796875 C14.5330092,24.9244804 14.4112656,25.2200504 14.4112656,25.5664062 C14.4112656,25.9127621 14.5330092,26.2083321 14.7765,26.453125 C15.0199908,26.6979179 15.3162118,26.8203125 15.6651719,26.8203125 L18.6026719,26.8203125 L18.6026719,25.421875 L20.2901719,27.109375 Z M26.9551719,26.856 C27.2698401,27.2293352 27.4271719,27.6479977 27.4271719,28.112 C27.4165052,28.645336 27.2338403,29.0919982 26.8791719,29.452 C26.5245034,29.8120018 26.0938411,29.992 25.5871719,29.992 L23.4831719,29.992 C23.1098367,29.992 22.8911722,29.8906677 22.8271719,29.688 C22.7951717,29.5973329 22.7791719,29.4586676 22.7791719,29.272 L22.7791719,24.832 C22.7791719,24.7039994 22.7831718,24.610667 22.7911719,24.552 C22.7991719,24.493333 22.824505,24.4240004 22.8671719,24.344 C22.9418389,24.1999993 23.1498368,24.128 23.4911719,24.128 L25.5071719,24.128 C25.997841,24.128 26.4085036,24.298665 26.7391719,24.64 C27.0858403,24.9866684 27.2591719,25.4026642 27.2591719,25.888 C27.2591719,26.2400018 27.1578396,26.5626652 26.9551719,26.856 Z M26.0111719,28.032 C26.0111719,27.9039994 25.9965054,27.802667 25.9671719,27.728 C25.9378384,27.653333 25.8885056,27.6000002 25.8191719,27.568 C25.7125047,27.5253331 25.5631728,27.504 25.3711719,27.504 C25.1791709,27.504 25.0351724,27.466667 24.9391719,27.392 C24.8431714,27.317333 24.7951719,27.1640012 24.7951719,26.932 C24.7951719,26.6999988 24.8445047,26.546667 24.9431719,26.472 C25.041839,26.397333 25.2058374,26.36 25.4351719,26.36 C25.6485063,26.36 25.776505,26.3040006 25.8191719,26.192 C25.835172,26.133333 25.8431719,26.037334 25.8431719,25.904 C25.8431719,25.770666 25.7991723,25.6773336 25.7111719,25.624 C25.6231714,25.5706664 25.4911728,25.544 25.3151719,25.544 L24.1951719,25.544 L24.1951719,28.576 L25.5071719,28.576 C25.8431736,28.576 26.0111719,28.3946685 26.0111719,28.032 Z" id="↪-A-↪-B" fill="#250271"></path>
            </g>
        </g>
    </g>
</svg>