<?xml version="1.0" encoding="UTF-8"?>
<svg width="40px" height="40px" viewBox="0 0 40 40" version="1.1" xmlns="http://www.w3.org/2000/svg" xmlns:xlink="http://www.w3.org/1999/xlink">
    <!-- Generator: Sketch 51.2 (57519) - http://www.bohemiancoding.com/sketch -->
    <title>icon_tw</title>
    <desc>Created with Sketch.</desc>
    <defs></defs>
    <g id="icon_tw" stroke="none" stroke-width="1" fill="none" fill-rule="evenodd">
        <g id="icon-twitter" transform="translate(10.000000, 12.000000)" fill="#1B95E0" fill-rule="nonzero">
            <path d="M20.2372859,2.62930211 C19.524244,2.94009217 18.7537378,3.14675966 17.9492387,3.23905011 C18.772353,2.7586665 19.4020313,1.99667871 19.7023021,1.09112799 C18.931796,1.53522647 18.0787356,1.86021505 17.1714484,2.03375265 C16.4430287,1.27965292 15.4070541,0.80952381 14.2618165,0.80952381 C12.0611797,0.80952381 10.2781702,2.54726616 10.2781702,4.69203305 C10.2781702,4.99493503 10.3121631,5.29073774 10.3809583,5.57549716 C7.06907688,5.41300286 4.13273624,3.86694067 2.16762182,1.51550629 C1.82607393,2.08896915 1.62859127,2.75787769 1.62859127,3.46780421 C1.62859127,4.81350936 2.33030222,6.00460829 3.40026979,6.69954747 C2.7479295,6.68140491 2.13281955,6.50392328 1.59459835,6.21521983 C1.59459835,6.23020717 1.59459835,6.24834973 1.59459835,6.26333707 C1.59459835,8.14543115 2.96807411,9.71673517 4.79317007,10.0716984 C4.45971573,10.1600448 4.10683687,10.2081621 3.74262703,10.2081621 C3.48444273,10.2081621 3.23839875,10.1821314 2.99154541,10.1379582 C3.49982047,11.6800764 4.97203757,12.8041267 6.71296059,12.8372566 C5.34676903,13.8800598 3.63255473,14.5008511 1.76213487,14.5008511 C1.44001151,14.5008511 1.12436298,14.4827085 0.80952381,14.4456346 C2.57715555,15.5515423 4.67176679,16.1904762 6.92177423,16.1904762 C14.2512949,16.1904762 18.2616499,10.2704779 18.2616499,5.13849794 C18.2616499,4.96811558 18.2576031,4.80167725 18.2503189,4.63602773 C19.0281092,4.09253954 19.7031115,3.40864367 20.2380952,2.62851331 L20.2372859,2.62930211 Z" id="Shape"></path>
        </g>
    </g>
</svg>