<?xml version="1.0" encoding="UTF-8"?>
<svg width="250px" height="250px" viewBox="0 0 250 250" version="1.1" xmlns="http://www.w3.org/2000/svg" xmlns:xlink="http://www.w3.org/1999/xlink">
    <!-- Generator: Sketch 48.1 (47250) - http://www.bohemiancoding.com/sketch -->
    <title>Group 13</title>
    <desc>Created with Sketch.</desc>
    <defs>
        <linearGradient x1="0%" y1="0%" x2="100%" y2="78.2862689%" id="linearGradient-1">
            <stop stop-color="#3C25FC" offset="0%"></stop>
            <stop stop-color="#08BAF6" offset="100%"></stop>
        </linearGradient>
    </defs>
    <g id="migue-nodos" stroke="none" stroke-width="1" fill="none" fill-rule="evenodd" transform="translate(-25.000000, -25.000000)">
        <g id="Group-13" transform="translate(25.000000, 25.000000)" fill="url(#linearGradient-1)" fill-rule="nonzero">
            <path d="M125,235 C185.751322,235 235,185.751322 235,125 C235,64.2486775 185.751322,15 125,15 C64.2486775,15 15,64.2486775 15,125 C15,185.751322 64.2486775,235 125,235 Z M125,250 C55.9644063,250 0,194.035594 0,125 C0,55.9644063 55.9644063,0 125,0 C194.035594,0 250,55.9644063 250,125 C250,194.035594 194.035594,250 125,250 Z M90,93 L90,157.69697 L100.994764,157.69697 L100.994764,105.701806 L101.17801,105.701806 L120.602094,157.69697 L128.664921,157.69697 L148.363874,105.701806 L148.54712,105.701806 L148.54712,157.69697 L160,157.69697 L160,93 L141.858639,93 L125.183246,138.96409 L124.908377,138.96409 L108.049738,93 L90,93 Z" id="Combined-Shape"></path>
        </g>
    </g>
</svg>