<?xml version="1.0" encoding="UTF-8"?>
<svg width="212px" height="221px" viewBox="0 0 212 221" version="1.1" xmlns="http://www.w3.org/2000/svg" xmlns:xlink="http://www.w3.org/1999/xlink">
    <!-- Generator: Sketch 60.1 (88133) - https://sketch.com -->
    <title>up-hook-alt</title>
    <desc>Created with Sketch.</desc>
    <defs>
        <circle id="path-1" cx="12" cy="12" r="8"></circle>
        <circle id="path-3" cx="10" cy="10" r="8"></circle>
    </defs>
    <g id="Landing-3" stroke="none" stroke-width="1" fill="none" fill-rule="evenodd">
        <g id="Flow/Left/Curve/Up/Hook-Alt" transform="translate(2.000000, 11.000000)">
            <g id="_-Assets/End-point/interaction/tap-alt" transform="translate(150.000000, 150.000000)">
                <circle id="fill" fill="#FF0F77" fill-rule="evenodd" cx="30" cy="30" r="30"></circle>
                <g id="_-Assets/End-point/cap/circle" transform="translate(18.000000, 18.000000)">
                    <mask id="mask-2" fill="white">
                        <use xlink:href="#path-1"></use>
                    </mask>
                    <use id="Oval" fill="#23232A" fill-rule="evenodd" xlink:href="#path-1"></use>
                </g>
            </g>
            <path d="M90,0 L90,49.7216049 C90,71.7262625 72.2265368,89.5987415 50.2222188,89.7209877 L0,90 L0,90" id="Path" stroke="#23232A" stroke-width="4" stroke-linecap="round" stroke-linejoin="round" stroke-dasharray="4,8" transform="translate(45.000000, 45.000000) scale(-1, -1) translate(-45.000000, -45.000000) "></path>
            <path d="M0,90 L140,90 C162.09139,90 180,107.90861 180,130 L180,180 L180,180" id="Path" stroke="#23232A" stroke-width="4" stroke-linecap="round" stroke-linejoin="round" stroke-dasharray="4,8" transform="translate(90.000000, 135.000000) scale(-1, -1) translate(-90.000000, -135.000000) "></path>
            <g id="_-Assets/End-point/cap/chevron" transform="translate(90.000000, 0.000000) scale(-1, -1) rotate(-180.000000) translate(-90.000000, -0.000000) translate(80.000000, -10.000000)" stroke="#23232A" stroke-linecap="round" stroke-linejoin="round" stroke-width="4">
                <polyline id="Path" transform="translate(6.485281, 10.000000) rotate(-315.000000) translate(-6.485281, -10.000000) " points="0.485281374 4 12.4852814 4 12.4852814 16"></polyline>
            </g>
            <g id="_-Assets/End-point/cap/circle" transform="translate(180.000000, 180.000000) scale(1, -1) translate(-180.000000, -180.000000) translate(170.000000, 170.000000)">
                <mask id="mask-4" fill="white">
                    <use xlink:href="#path-3"></use>
                </mask>
                <use id="Oval" fill="#23232A" fill-rule="evenodd" xlink:href="#path-3"></use>
            </g>
        </g>
    </g>
</svg>