<?xml version="1.0" encoding="UTF-8"?>
<svg width="240px" height="240px" viewBox="0 0 240 240" version="1.1" xmlns="http://www.w3.org/2000/svg" xmlns:xlink="http://www.w3.org/1999/xlink">
    <!-- Generator: Sketch 60.1 (88133) - https://sketch.com -->
    <title>Left Curve Up U-turn Alt</title>
    <desc>Created with Sketch.</desc>
    <defs>
        <circle id="path-1" cx="12" cy="12" r="8"></circle>
        <circle id="path-3" cx="10" cy="10" r="8"></circle>
    </defs>
    <g id="Left-Curve-Up-U-turn-Alt" stroke="none" stroke-width="1" fill="none" fill-rule="evenodd">
        <g id="Flow/Left/Curve/Up/U-turn-Alt" transform="translate(30.000000, 30.000000)">
            <g id="_-Assets/End-point/interaction/tap-alt" transform="translate(150.000000, 150.000000)">
                <circle id="fill" fill="#FF0F77" fill-rule="evenodd" cx="30" cy="30" r="30"></circle>
                <g id="_-Assets/End-point/cap/circle" transform="translate(18.000000, 18.000000)">
                    <mask id="mask-2" fill="white">
                        <use xlink:href="#path-1"></use>
                    </mask>
                    <use id="Oval" fill="#23232A" fill-rule="evenodd" xlink:href="#path-1"></use>
                </g>
            </g>
            <path d="M0,0 L140,0 C162.09139,-4.05812251e-15 180,17.90861 180,40 L180,140 C180,162.09139 162.09139,180 140,180 L0,180 L0,180" id="path" stroke="#23232A" stroke-width="4" stroke-linecap="round" stroke-linejoin="round" stroke-dasharray="4,8" transform="translate(90.000000, 90.000000) scale(-1, 1) translate(-90.000000, -90.000000) "></path>
            <g id="_-Assets/End-point/cap/chevron" transform="translate(180.000000, 0.000000) scale(-1, 1) rotate(-180.000000) translate(-180.000000, -0.000000) translate(170.000000, -10.000000)" stroke="#23232A" stroke-linecap="round" stroke-linejoin="round" stroke-width="4">
                <polyline id="Path" transform="translate(6.485281, 10.000000) rotate(-315.000000) translate(-6.485281, -10.000000) " points="0.485281374 4 12.4852814 4 12.4852814 16"></polyline>
            </g>
            <g id="_-Assets/End-point/cap/circle" transform="translate(170.000000, 170.000000)">
                <mask id="mask-4" fill="white">
                    <use xlink:href="#path-3"></use>
                </mask>
                <use id="Oval" fill="#23232A" fill-rule="evenodd" xlink:href="#path-3"></use>
            </g>
        </g>
    </g>
</svg>