<?xml version="1.0" encoding="UTF-8"?>
<svg width="40px" height="40px" viewBox="0 0 40 40" version="1.1" xmlns="http://www.w3.org/2000/svg" xmlns:xlink="http://www.w3.org/1999/xlink">
    <!-- Generator: Sketch 51.2 (57519) - http://www.bohemiancoding.com/sketch -->
    <title>icon_update</title>
    <desc>Created with Sketch.</desc>
    <defs></defs>
    <g id="icon_update" stroke="none" stroke-width="1" fill="none" fill-rule="evenodd">
        <path d="M8.04,13.5880658 C8.04,13.2982868 8.27281193,13.0633745 8.56,13.0633745 L31.44,13.0633745 C31.7271881,13.0633745 31.96,13.2982868 31.96,13.5880658 L31.96,27.4119342 C31.96,27.7017132 31.7271881,27.9366255 31.44,27.9366255 L8.56,27.9366255 C8.27281193,27.9366255 8.04,27.7017132 8.04,27.4119342 L8.04,13.5880658 Z M9.08,14.1127572 L9.08,26.8872428 L30.92,26.8872428 L30.92,14.1127572 L9.08,14.1127572 Z M8.56,13.0493827 C8.27436495,13.0493827 8.04,13.2890151 8.04,13.5880658 L8.04,27.4119342 C8.04,27.7109849 8.27436495,27.9506173 8.56,27.9506173 L31.44,27.9506173 C31.7256351,27.9506173 31.96,27.7109849 31.96,27.4119342 L31.96,13.5880658 C31.96,13.2890151 31.7256351,13.0493827 31.44,13.0493827 L8.56,13.0493827 Z M8.56,12 L31.44,12 C32.3031172,12 33,12.7125455 33,13.5880658 L33,27.4119342 C33,28.2874545 32.3031172,29 31.44,29 L8.56,29 C7.69688277,29 7,28.2874545 7,27.4119342 L7,13.5880658 C7,12.7125455 7.69688277,12 8.56,12 Z M21.5927992,19.3199706 C20.7677175,19.8265808 19.7355949,19.8265808 18.9105133,19.3199706 L9.39961531,13.4801633 L18.9157322,19.3351491 C19.7382369,19.840177 20.7650756,19.840177 21.5875802,19.3351491 L31.0675422,13.5143369 L21.5927992,19.3199706 Z M32.400248,13.9244444 L22.1282126,20.2315993 C20.9736136,20.9405372 19.5296988,20.9405372 18.3750999,20.2315993 L7.65668281,13.6503606 C7.24592198,13.3981484 7.36533795,12.7668038 7.83928341,12.6849628 L9.41598512,12.4126978 C9.53966444,12.3913408 9.66682603,12.4158288 9.77401689,12.4816453 L19.4511456,18.4235203 C19.944133,18.7262206 20.5591794,18.7262206 21.0521668,18.4235203 L30.7654774,12.4594292 C30.9202264,12.3644114 31.1128291,12.357501 31.2738757,12.4411883 L32.3680139,13.0097532 C32.7290359,13.197357 32.7471524,13.7114408 32.400248,13.9244444 Z" id="Combined-Shape" fill="#FFFFFF" fill-rule="nonzero"></path>
        <circle id="Oval-4" fill="#F11777" fill-rule="nonzero" cx="32.5" cy="11.5" r="5.5"></circle>
        <path d="M32.7301136,8.22159091 C32.8778416,8.0738629 33.0383514,8 33.2116477,8 C33.384944,8 33.5198859,8.0142044 33.6164773,8.04261364 C33.7130687,8.07102287 33.7869316,8.103693 33.8380682,8.140625 C33.8892048,8.177557 33.9289771,8.23863594 33.9573864,8.32386364 C33.9857956,8.42045503 34,8.5710217 34,8.77556818 L34,13.5227273 C34,13.6534097 33.9957387,13.7514201 33.9872159,13.8167614 C33.9786931,13.8821026 33.9517048,13.9573859 33.90625,14.0426136 C33.8267041,14.1960235 33.6051155,14.2727273 33.2414773,14.2727273 C32.8892028,14.2727273 32.670455,14.1988644 32.5852273,14.0511364 C32.5397725,13.9659087 32.5127841,13.8877844 32.5042614,13.8167614 C32.4957386,13.7457383 32.4914773,13.6420461 32.4914773,13.5056818 L32.4914773,10.4630682 L32.3806818,10.5653409 C32.1477261,10.7414782 31.9488645,10.8295455 31.7840909,10.8295455 C31.6193174,10.8295455 31.4474441,10.7301146 31.2684659,10.53125 C31.0894877,10.3323854 31,10.1562508 31,10.0028409 C31,9.84943105 31.1022717,9.68181909 31.3068182,9.5 L32.7045455,8.23863636 L32.7301136,8.22159091 Z" id="1" fill="#FFFFFF"></path>
    </g>
</svg>