<?xml version="1.0" encoding="UTF-8"?>
<svg width="15px" height="15px" viewBox="0 0 15 15" version="1.1" xmlns="http://www.w3.org/2000/svg" xmlns:xlink="http://www.w3.org/1999/xlink">
    <!-- Generator: Sketch 48.1 (47250) - http://www.bohemiancoding.com/sketch -->
    <title>dribbble-icon</title>
    <desc>Created with Sketch.</desc>
    <defs></defs>
    <g id="migue.design" stroke="none" stroke-width="1" fill="none" fill-rule="evenodd" transform="translate(-503.000000, -638.000000)">
        <path d="M505.1875,640.1875 C506.645841,638.729159 508.416656,638 510.5,638 C512.583344,638 514.354159,638.729159 515.8125,640.1875 C517.270841,641.645841 518,643.416656 518,645.5 C518,647.583344 517.270841,649.354159 515.8125,650.8125 C514.354159,652.270841 512.583344,653 510.5,653 C508.416656,653 506.645841,652.270841 505.1875,650.8125 C503.729159,649.354159 503,647.583344 503,645.5 C503,643.416656 503.729159,641.645841 505.1875,640.1875 Z M515.265625,641.4375 C514.61458,642.401046 513.50782,643.234371 511.945312,643.9375 C512.101563,644.276043 512.270832,644.679685 512.453125,645.148438 C513.911466,645.018229 515.343743,644.992187 516.75,645.070312 C516.671875,643.690097 516.177088,642.479172 515.265625,641.4375 Z M510.5,639.25 C510.057289,639.25 509.549482,639.315104 508.976562,639.445312 C509.757816,640.226566 510.5651,641.359368 511.398438,642.84375 C512.804695,642.27083 513.83333,641.554692 514.484375,640.695312 C513.312494,639.731766 511.984382,639.25 510.5,639.25 Z M507.6875,639.953125 C506.020825,640.812504 504.940107,642.153637 504.445312,643.976562 L505.421875,643.976562 C507.114592,643.976562 508.690097,643.755211 510.148438,643.3125 C509.393225,641.958327 508.572921,640.838546 507.6875,639.953125 Z M504.25,645.1875 L504.25,645.5 C504.25,647.08855 504.770828,648.468744 505.8125,649.640625 C506.802088,647.791657 508.390614,646.411463 510.578125,645.5 C510.708334,645.447916 510.890624,645.395834 511.125,645.34375 C510.968749,644.927081 510.838542,644.614584 510.734375,644.40625 C509.171867,644.901044 507.37501,645.174479 505.34375,645.226562 C505.239583,645.226562 505.057293,645.220052 504.796875,645.207031 C504.536457,645.19401 504.354167,645.1875 504.25,645.1875 Z M510.5,651.75 C511.307296,651.75 512.049476,651.619793 512.726562,651.359375 C512.596354,650.26562 512.401043,649.236984 512.140625,648.273438 C512.036458,647.830727 511.828127,647.192712 511.515625,646.359375 C511.203123,646.4375 510.981771,646.515625 510.851562,646.59375 C508.898428,647.479171 507.505213,648.7552 506.671875,650.421875 C507.817714,651.307296 509.093743,651.75 510.5,651.75 Z M513.859375,650.734375 C515.578134,649.614578 516.528645,648.104176 516.710938,646.203125 C515.174471,646.098958 513.885422,646.098958 512.84375,646.203125 C513.13021,647.010421 513.286458,647.505207 513.3125,647.6875 C513.546876,648.598963 513.729166,649.614578 513.859375,650.734375 Z" id="dribbble" fill="#EA4C89"></path>
    </g>
</svg>