<?xml version="1.0" encoding="UTF-8"?>
<svg width="18px" height="15px" viewBox="0 0 18 15" version="1.1" xmlns="http://www.w3.org/2000/svg" xmlns:xlink="http://www.w3.org/1999/xlink">
    <!-- Generator: Sketch 48.1 (47250) - http://www.bohemiancoding.com/sketch -->
    <title>instagram-icon</title>
    <desc>Created with Sketch.</desc>
    <defs></defs>
    <g id="migue.design" stroke="none" stroke-width="1" fill="none" fill-rule="evenodd" transform="translate(-616.000000, -638.000000)">
        <path d="M628.773438,638.625 C630.153653,638.625 631.286454,639.028642 632.171875,639.835938 C633.057296,640.643233 633.5,641.749993 633.5,643.15625 C633.5,644.588549 632.966151,645.955723 631.898438,647.257812 C630.856766,648.533861 629.554695,649.679682 627.992188,650.695312 C627.367184,651.111981 626.781253,651.45703 626.234375,651.730469 C625.687497,652.003908 625.296876,652.179687 625.0625,652.257812 L624.75,652.375 C624.02083,652.192707 622.940111,651.632817 621.507812,650.695312 C619.945305,649.679682 618.643234,648.533861 617.601562,647.257812 C616.533849,645.955723 616,644.588549 616,643.15625 C616,641.749993 616.442704,640.643233 617.328125,639.835938 C618.213546,639.028642 619.346347,638.625 620.726562,638.625 C621.533858,638.625 622.30859,638.80729 623.050781,639.171875 C623.792972,639.53646 624.359373,640.044268 624.75,640.695312 C625.140627,640.044268 625.707028,639.53646 626.449219,639.171875 C627.19141,638.80729 627.966142,638.625 628.773438,638.625 Z" id="instagram" fill="#262626"></path>
    </g>
</svg>