<?xml version="1.0" encoding="UTF-8"?>
<svg width="15px" height="15px" viewBox="0 0 15 15" version="1.1" xmlns="http://www.w3.org/2000/svg" xmlns:xlink="http://www.w3.org/1999/xlink">
    <!-- Generator: Sketch 48.1 (47250) - http://www.bohemiancoding.com/sketch -->
    <title>linkedin-icon</title>
    <desc>Created with Sketch.</desc>
    <defs></defs>
    <g id="migue.design" stroke="none" stroke-width="1" fill="none" fill-rule="evenodd" transform="translate(-538.000000, -638.000000)">
        <path d="M551.789062,638 C552.127606,638 552.414061,638.110676 552.648438,638.332031 C552.882814,638.553387 553,638.833332 553,639.171875 L553,651.710938 C553,652.049481 552.882814,652.348957 552.648438,652.609375 C552.414061,652.869793 552.127606,653 551.789062,653 L539.289062,653 C538.950519,653 538.651043,652.869793 538.390625,652.609375 C538.130207,652.348957 538,652.049481 538,651.710938 L538,639.171875 C538,638.833332 538.123697,638.553387 538.371094,638.332031 C538.618491,638.110676 538.924477,638 539.289062,638 L551.789062,638 Z M542.648438,650.5 L542.648438,643.820312 L540.5,643.820312 L540.5,650.5 L542.648438,650.5 Z M540.8125,642.492188 C541.020834,642.700522 541.294269,642.804688 541.632812,642.804688 C541.971356,642.804688 542.251301,642.694012 542.472656,642.472656 C542.694012,642.251301 542.804688,641.984377 542.804688,641.671875 C542.804688,641.333332 542.700522,641.053387 542.492188,640.832031 C542.283853,640.610676 542.010418,640.5 541.671875,640.5 C541.333332,640.5 541.053387,640.610676 540.832031,640.832031 C540.610676,641.053387 540.5,641.333332 540.5,641.671875 C540.5,641.984377 540.604166,642.257811 540.8125,642.492188 Z M550.5,650.5 L550.5,646.59375 C550.5,645.630204 550.272138,644.901044 549.816406,644.40625 C549.360675,643.911456 548.768233,643.664062 548.039062,643.664062 C547.257809,643.664062 546.606773,644.028642 546.085938,644.757812 L546.085938,643.820312 L543.9375,643.820312 L543.9375,650.5 L546.085938,650.5 L546.085938,646.710938 C546.085938,646.45052 546.111979,646.26823 546.164062,646.164062 C546.372397,645.643227 546.736977,645.382812 547.257812,645.382812 C547.986983,645.382812 548.351562,645.864579 548.351562,646.828125 L548.351562,650.5 L550.5,650.5 Z" id="linkedin" fill="#0C63BC"></path>
    </g>
</svg>