<?xml version="1.0" encoding="UTF-8"?>
<svg width="19px" height="15px" viewBox="0 0 19 15" version="1.1" xmlns="http://www.w3.org/2000/svg" xmlns:xlink="http://www.w3.org/1999/xlink">
    <!-- Generator: Sketch 48.1 (47250) - http://www.bohemiancoding.com/sketch -->
    <title>twitter-icon</title>
    <desc>Created with Sketch.</desc>
    <defs></defs>
    <g id="migue.design" stroke="none" stroke-width="1" fill="none" fill-rule="evenodd" transform="translate(-577.000000, -638.000000)">
        <path d="M595.4375,639.796875 C594.968748,640.526045 594.343754,641.17708 593.5625,641.75 L593.5625,642.21875 C593.5625,644.953139 592.579437,647.433583 590.613281,649.660156 C588.647126,651.88673 586.036475,653 582.78125,653 C580.697906,653 578.770842,652.427089 577,651.28125 C577.416669,651.333334 577.716145,651.359375 577.898438,651.359375 C579.643238,651.359375 581.205722,650.812505 582.585938,649.71875 C581.778642,649.692708 581.049482,649.438804 580.398438,648.957031 C579.747393,648.475258 579.304689,647.856775 579.070312,647.101562 C579.382814,647.153646 579.617187,647.179688 579.773438,647.179688 C580.033855,647.179688 580.372394,647.127605 580.789062,647.023438 C579.929683,646.841145 579.207034,646.404951 578.621094,645.714844 C578.035153,645.024736 577.742188,644.223963 577.742188,643.3125 L577.742188,643.273438 C578.315107,643.585939 578.888018,643.742188 579.460938,643.742188 C578.34114,643.013017 577.78125,641.95834 577.78125,640.578125 C577.78125,639.92708 577.950519,639.302086 578.289062,638.703125 C580.294281,641.177096 582.885401,642.492187 586.0625,642.648438 C586.010416,642.466145 585.984375,642.179689 585.984375,641.789062 C585.984375,640.721349 586.348955,639.82292 587.078125,639.09375 C587.807295,638.36458 588.705724,638 589.773438,638 C590.841151,638 591.7526,638.403642 592.507812,639.210938 C593.289066,639.080729 594.09635,638.768232 594.929688,638.273438 C594.66927,639.1849 594.109379,639.888018 593.25,640.382812 C594.057296,640.304687 594.786455,640.109377 595.4375,639.796875 Z" id="twitter" fill="#1794FF"></path>
    </g>
</svg>