<?xml version="1.0" encoding="UTF-8"?>
<svg width="17px" height="17px" viewBox="0 0 17 17" version="1.1" xmlns="http://www.w3.org/2000/svg" xmlns:xlink="http://www.w3.org/1999/xlink">
    <title>spark 1</title>
    <g id="Page-1" stroke="none" stroke-width="1" fill="none" fill-rule="evenodd">
        <g id="10-0-1---Loading" transform="translate(-136, -213)" fill="#FFFFFF">
            <path d="M140.164214,216.311329 C142.672755,218.03516 145.984099,218.03516 148.492641,216.311329 C148.919046,216.018311 149.502254,216.126442 149.795272,216.552846 C150.014903,216.872457 150.014903,217.294351 149.795272,217.613961 C148.071442,220.122503 148.071442,223.433847 149.795272,225.942388 C150.088291,226.368793 149.98016,226.952001 149.553755,227.24502 C149.234145,227.464651 148.812251,227.464651 148.492641,227.24502 C145.984099,225.521189 142.672755,225.521189 140.164214,227.24502 C139.737809,227.538038 139.154601,227.429908 138.861582,227.003503 C138.641951,226.683893 138.641951,226.261998 138.861582,225.942388 C140.585412,223.433847 140.585412,220.122503 138.861582,217.613961 C138.568563,217.187556 138.676694,216.604348 139.103099,216.311329 C139.422709,216.091698 139.844603,216.091698 140.164214,216.311329 Z" id="spark-1" transform="translate(144.3284, 221.7782) rotate(-315) translate(-144.3284, -221.7782)"></path>
        </g>
    </g>
</svg>